<svg xmlns="http://www.w3.org/2000/svg" viewBox="0 0 1440 320"><path fill="#ffd700" fill-opacity="1" d="M0,128L14.1,133.3C28.2,139,56,149,85,138.7C112.9,128,141,96,169,106.7C197.6,117,226,171,254,176C282.4,181,311,139,339,144C367.1,149,395,203,424,234.7C451.8,267,480,277,508,261.3C536.5,245,565,203,593,186.7C621.2,171,649,181,678,160C705.9,139,734,85,762,101.3C790.6,117,819,203,847,234.7C875.3,267,904,245,932,213.3C960,181,988,139,1016,133.3C1044.7,128,1073,160,1101,192C1129.4,224,1158,256,1186,240C1214.1,224,1242,160,1271,138.7C1298.8,117,1327,139,1355,154.7C1383.5,171,1412,181,1426,186.7L1440,192L1440,0L1425.9,0C1411.8,0,1384,0,1355,0C1327.1,0,1299,0,1271,0C1242.4,0,1214,0,1186,0C1157.6,0,1129,0,1101,0C1072.9,0,1045,0,1016,0C988.2,0,960,0,932,0C903.5,0,875,0,847,0C818.8,0,791,0,762,0C734.1,0,706,0,678,0C649.4,0,621,0,593,0C564.7,0,536,0,508,0C480,0,452,0,424,0C395.3,0,367,0,339,0C310.6,0,282,0,254,0C225.9,0,198,0,169,0C141.2,0,113,0,85,0C56.5,0,28,0,14,0L0,0Z"></path></svg>